<?xml version="1.0" encoding="UTF-8"?>
<svg id="Layer_2" data-name="Layer 2" xmlns="http://www.w3.org/2000/svg" viewBox="0 0 107.16 113.81">
  <defs>
    <style>
      .cls-1 {
        fill: #8e1c1a;
      }
    </style>
  </defs>
  <g id="Layer_1-2" data-name="Layer 1">
    <g>
      <path class="cls-1" d="M98.7,10.17c-6.62-3.42-13.69-5.67-20.91-7.57L63.06,.21C38.17-1.19,22.18,4.84,13.81,9.02,.29,15.77-.03,21.01,0,22.31c.08,3.83,3.01,9.18,6.71,11.61,2.32,1.52,3.89,3.5,5.22,5.82,3.62,6.32,5.29,13.04,4.98,20.4-.33,7.76-.2,15.54-.11,23.31,.05,4.55,2.15,8,6.59,9.5,4.31,1.46,8.15,.47,11.21-3.05,.74-.85,1.51-1.68,2.5-2.78,4.14,7.69,8.13,15.05,12.08,22.43,1.01,1.88,1.66,4.18,4.3,4.25,2.64,.07,3.42-2.1,4.45-4.02,12.59-23.61,25.22-47.19,37.82-70.79,1.03-1.92,2.29-3.51,4.18-4.75,10.12-6.65,9.53-18.53-1.22-24.08ZM61.32,86.04c-3.81-.29-3.54-3.61-4.03-6.12,.07-4.34,2.63-5.91,6.37-5.98,1.66-.03,3.85-.46,3.96,2.35,.13,3.54-3.78,9.94-6.29,9.75Zm26.92-46.96c-4.55,8.24-9.12,16.48-13.38,24.87-1.86,3.65-3.66,5.23-8.07,3.61-5.85-2.14-12.01,.96-14.98,6.62-2.91,5.56-1.82,11.51,2.85,15.62,4.43,3.89,4.28,5.64-1.46,12.9-5.31-9.91-10.38-19.37-15.44-28.83-1.1-2.06-2.03-4.44-5.06-3.66-2.94,.76-2.15,3.3-2.25,5.34-.11,2.31,0,4.64-.19,6.94-.18,2.3-1.01,4.47-3.8,4.22-2.52-.23-2.83-2.38-2.83-4.5,0-7.94-.33-15.9,.07-23.82,.35-6.86-.86-13.13-4.44-18.97-1.01-1.65-2.46-3.39,.3-4.94,2.53-1.42,4.16-.92,5.64,1.66,3.09,5.41,7.69,8.04,14.09,6.75,6.51-1.32,9.96-5.37,10.79-11.89,.26-2.04,.16-4.6,3.37-4.5,3.72,.12,7.85-.78,10.06,3.54,.52,1.01,.74,2.18,1.1,3.27,2.23,6.87,9.41,8.99,15,4.38,1.14-.94,2.04-2.16,3.11-3.18,1.89-1.79,3.69-.77,5.38,.35,1.96,1.3,.98,2.65,.11,4.21ZM31.42,30.2c3.5-1.31,7.07-2.83,10.92-2.26,1.27,.19,1.33,1.74,1.06,2.93-.79,3.47-2.98,5.37-6.33,5.7-2.77-.01-4.54-1.37-5.89-3.39-.69-1.04-1.1-2.48,.25-2.98Zm68.83-7.45c-.17,2.7-1.39,4.74-3.97,5.77-3.64,1.45-10.79-1.23-12.39-4.87-.86-1.96-1.52-3.82-4.07-3.37-3.02,.52-2.5,3-2.56,5.11-.01,.5,.02,.99-.01,1.49-.16,2.65-.03,5.98-3.61,6-3.87,.02-3.17-3.46-3.22-6.02-.06-3.14,.02-6.29-.06-9.43-.06-2.22-.92-3.9-3.48-3.92-2.32-.01-3.27,1.47-3.23,3.53,.05,3.13-1.74,3.44-4.23,3.2-14.18-1.38-27.6,1.55-40.53,7.22-.45,.2-.92,.38-1.38,.56-4.95,1.95-7.95,1.18-9.75-2.49-1.92-3.92-.61-7.27,4.19-9.54,10.85-5.13,22.28-8.25,34.26-9.23,2.46-.2,4.96-.03,7.44-.03,14.66-.36,28.46,3.26,41.71,9.29,2.82,1.28,5.12,3.15,4.89,6.74Z"/>
      <path class="cls-1" d="M54.44,50.58c-2.15-.49-3.4,.55-4.08,2.57-.59,1.75-1.29,3.45-3.67,3.3-2.08-.14-2.6-1.64-3.14-3.27-.65-1.92-1.94-3.2-4.1-2.58-2.38,.68-2.72,2.57-2.35,4.75,.79,4.64,4.97,8.09,9.82,8.08,5.1-.01,9.57-3.9,9.8-8.55,.09-1.87,.07-3.77-2.28-4.31Z"/>
      <path class="cls-1" d="M66.98,47.19c-1.91,.03-3.24,.92-3.28,2.9-.05,2.22,1.39,3.3,3.5,3.22,1.9-.07,3.12-1.25,3.03-3.17-.09-1.88-1.24-2.98-3.25-2.94Z"/>
    </g>
  </g>
</svg>