<?xml version="1.0" encoding="UTF-8"?>
<svg id="Layer_2" data-name="Layer 2" xmlns="http://www.w3.org/2000/svg" viewBox="0 0 226.02 226.02">
  <defs>
    <style>
      .cls-1 {
        fill: #8e1c1a;
      }

      .cls-2 {
        fill: #efefef;
      }
    </style>
  </defs>
  <g id="Layer_1-2" data-name="Layer 1">
    <circle class="cls-1" cx="113.01" cy="113.01" r="113.01"/>
    <g>
      <path class="cls-2" d="M158.14,36.46c-6.62-3.42-13.69-5.67-20.91-7.57l-14.74-2.4c-24.89-1.4-40.87,4.63-49.25,8.81-13.52,6.75-13.83,11.99-13.81,13.3,.08,3.83,3.01,9.18,6.71,11.61,2.32,1.52,3.89,3.5,5.22,5.82,3.62,6.32,5.29,13.04,4.98,20.4-.33,7.76-.2,15.54-.11,23.31,.05,4.55,2.15,8,6.59,9.5,4.31,1.46,8.15,.47,11.21-3.05,.74-.85,1.51-1.68,2.5-2.78,4.14,7.69,8.13,15.05,12.08,22.43,1.01,1.88,1.66,4.18,4.3,4.25,2.64,.07,3.42-2.1,4.45-4.02,12.59-23.61,25.22-47.19,37.82-70.79,1.03-1.92,2.29-3.51,4.18-4.75,10.12-6.65,9.53-18.53-1.22-24.08Zm-37.38,75.86c-3.81-.29-3.54-3.61-4.03-6.12,.07-4.34,2.63-5.91,6.37-5.98,1.66-.03,3.85-.46,3.96,2.35,.13,3.54-3.78,9.94-6.29,9.75Zm26.92-46.96c-4.55,8.24-9.12,16.48-13.38,24.87-1.86,3.65-3.66,5.23-8.07,3.61-5.85-2.14-12.01,.96-14.98,6.62-2.91,5.56-1.82,11.51,2.85,15.62,4.43,3.89,4.28,5.64-1.46,12.9-5.31-9.91-10.38-19.37-15.44-28.83-1.1-2.06-2.03-4.44-5.06-3.66-2.94,.76-2.15,3.3-2.25,5.34-.11,2.31,0,4.64-.19,6.94-.18,2.3-1.01,4.47-3.8,4.22-2.52-.23-2.83-2.38-2.83-4.5,0-7.94-.33-15.9,.07-23.82,.35-6.86-.86-13.13-4.44-18.97-1.01-1.65-2.46-3.39,.3-4.94,2.53-1.42,4.16-.92,5.64,1.66,3.09,5.41,7.69,8.04,14.09,6.75,6.51-1.32,9.96-5.37,10.79-11.89,.26-2.04,.16-4.6,3.37-4.5,3.72,.12,7.85-.78,10.06,3.54,.52,1.01,.74,2.18,1.1,3.27,2.23,6.87,9.41,8.99,15,4.38,1.14-.94,2.04-2.16,3.11-3.18,1.89-1.79,3.69-.77,5.38,.35,1.96,1.3,.98,2.65,.11,4.21Zm-56.82-8.87c3.5-1.31,7.07-2.83,10.92-2.26,1.27,.19,1.33,1.74,1.06,2.93-.79,3.47-2.98,5.37-6.33,5.7-2.77-.01-4.54-1.37-5.89-3.39-.69-1.04-1.1-2.48,.25-2.98Zm68.83-7.45c-.17,2.7-1.39,4.74-3.97,5.77-3.64,1.45-10.79-1.23-12.39-4.87-.86-1.96-1.52-3.82-4.07-3.37-3.02,.52-2.5,3-2.56,5.11-.01,.5,.02,.99-.01,1.49-.16,2.65-.03,5.98-3.61,6-3.87,.02-3.17-3.46-3.22-6.02-.06-3.14,.02-6.29-.06-9.43-.06-2.22-.92-3.9-3.48-3.92-2.32-.01-3.27,1.47-3.23,3.53,.05,3.13-1.74,3.44-4.23,3.2-14.18-1.38-27.6,1.55-40.53,7.22-.45,.2-.92,.38-1.38,.56-4.95,1.95-7.95,1.18-9.75-2.49-1.92-3.92-.61-7.27,4.19-9.54,10.85-5.13,22.28-8.25,34.26-9.23,2.46-.2,4.96-.03,7.44-.03,14.66-.36,28.46,3.26,41.71,9.29,2.82,1.28,5.12,3.15,4.89,6.74Z"/>
      <path class="cls-2" d="M113.87,76.86c-2.15-.49-3.4,.55-4.08,2.57-.59,1.75-1.29,3.45-3.67,3.3-2.08-.14-2.6-1.64-3.14-3.27-.65-1.92-1.94-3.2-4.1-2.58-2.38,.68-2.72,2.57-2.35,4.75,.79,4.64,4.97,8.09,9.82,8.08,5.1-.01,9.57-3.9,9.8-8.55,.09-1.87,.07-3.77-2.28-4.31Z"/>
      <path class="cls-2" d="M126.42,73.47c-1.91,.03-3.24,.92-3.28,2.9-.05,2.22,1.39,3.3,3.5,3.22,1.9-.07,3.12-1.25,3.03-3.17-.09-1.88-1.24-2.98-3.25-2.94Z"/>
      <path class="cls-2" d="M60.02,153.75c-1.5-.89-3.16-1.34-4.97-1.34-1.59,0-3.01,.33-4.27,.98-1.26,.66-2.26,1.46-2.99,2.42v-3.06h-4.31v30.75h4.31v-12.94c.78,.96,1.79,1.76,3.03,2.4,1.24,.64,2.65,.96,4.24,.96,1.82,0,3.47-.46,4.97-1.38,1.5-.92,2.68-2.21,3.54-3.86,.86-1.65,1.29-3.52,1.29-5.62s-.43-3.95-1.29-5.56c-.86-1.61-2.04-2.87-3.54-3.76Zm-.45,13.11c-.59,1.08-1.37,1.91-2.35,2.48s-2.01,.85-3.12,.85-2.11-.28-3.08-.83c-.97-.55-1.75-1.37-2.35-2.44-.59-1.07-.89-2.33-.89-3.76s.3-2.69,.89-3.74c.59-1.06,1.37-1.87,2.35-2.42,.97-.55,2-.83,3.08-.83s2.15,.27,3.12,.81c.97,.54,1.75,1.34,2.35,2.38,.59,1.05,.89,2.29,.89,3.73s-.3,2.7-.89,3.78Z"/>
      <path class="cls-2" d="M71.31,149.99c.76,0,1.4-.26,1.93-.79,.53-.53,.79-1.18,.79-1.97s-.26-1.44-.79-1.97c-.53-.53-1.17-.79-1.93-.79s-1.44,.26-1.97,.79c-.53,.53-.79,1.19-.79,1.97s.26,1.44,.79,1.97c.53,.53,1.19,.79,1.97,.79Z"/>
      <rect class="cls-2" x="69.11" y="152.75" width="4.31" height="20.84"/>
      <polygon class="cls-2" points="77.93 173.59 92.38 173.59 92.38 170.07 82.92 170.07 92.38 156.27 92.38 152.75 77.93 152.75 77.93 156.27 87.42 156.27 77.93 170.07 77.93 173.59"/>
      <polygon class="cls-2" points="95.74 156.27 105.24 156.27 95.74 170.07 95.74 173.59 110.19 173.59 110.19 170.07 100.74 170.07 110.19 156.27 110.19 152.75 95.74 152.75 95.74 156.27"/>
      <path class="cls-2" d="M133.27,167.39h-4.65c-.96,1.94-2.6,2.91-4.92,2.91-1.61,0-2.98-.5-4.09-1.51-1.11-1.01-1.73-2.35-1.85-4.01h15.92c.1-.63,.15-1.34,.15-2.12,0-2.02-.43-3.8-1.29-5.35-.86-1.55-2.06-2.75-3.59-3.61-1.54-.86-3.29-1.29-5.26-1.29s-3.85,.44-5.43,1.32c-1.58,.88-2.8,2.14-3.67,3.76-.87,1.63-1.31,3.51-1.31,5.65s.45,4.03,1.34,5.65,2.13,2.89,3.71,3.78c1.58,.9,3.36,1.34,5.35,1.34,2.45,0,4.49-.61,6.15-1.83,1.65-1.22,2.79-2.79,3.42-4.71Zm-13.58-9.93c1.06-.95,2.33-1.42,3.82-1.42,1.64,0,3.01,.48,4.12,1.44,1.11,.96,1.68,2.23,1.7,3.82h-11.54c.2-1.61,.83-2.89,1.89-3.84Z"/>
      <path class="cls-2" d="M138.07,152.75v20.84h4.31v-10.97c0-2.12,.44-3.61,1.31-4.46,.87-.86,2.15-1.29,3.84-1.29h1.1v-4.46c-1.44,0-2.68,.3-3.73,.89-1.05,.59-1.89,1.42-2.52,2.48v-3.03h-4.31Z"/>
      <path class="cls-2" d="M154.79,144.46c-.78,0-1.44,.26-1.97,.79-.53,.53-.79,1.19-.79,1.97s.26,1.44,.79,1.97c.53,.53,1.19,.79,1.97,.79s1.4-.26,1.93-.79c.53-.53,.79-1.18,.79-1.97s-.26-1.44-.79-1.97c-.53-.53-1.17-.79-1.93-.79Z"/>
      <rect class="cls-2" x="152.59" y="152.75" width="4.31" height="20.84"/>
      <path class="cls-2" d="M178.2,152.75v3.03c-.73-.96-1.71-1.76-2.93-2.4s-2.65-.96-4.29-.96c-1.82,0-3.47,.45-4.97,1.34-1.5,.9-2.69,2.15-3.56,3.76-.87,1.61-1.31,3.47-1.31,5.56s.44,3.97,1.31,5.62c.87,1.65,2.05,2.94,3.54,3.86,1.49,.92,3.13,1.38,4.92,1.38,1.61,0,3.05-.33,4.31-.98,1.26-.66,2.26-1.48,2.99-2.46v3.1h4.35v-20.84h-4.35Zm-.89,14.17c-.59,1.07-1.37,1.89-2.33,2.44-.96,.55-1.99,.83-3.1,.83s-2.11-.28-3.08-.85-1.75-1.39-2.35-2.48c-.59-1.08-.89-2.35-.89-3.78s.3-2.68,.89-3.73c.59-1.05,1.37-1.84,2.33-2.38,.96-.54,1.99-.81,3.1-.81s2.14,.28,3.1,.83c.96,.55,1.73,1.36,2.33,2.42,.59,1.06,.89,2.31,.89,3.74s-.3,2.69-.89,3.76Z"/>
      <polygon class="cls-2" points="74.03 193.6 70.66 185.15 69.26 185.15 73.32 195 71.4 199.72 72.72 199.72 78.6 185.15 77.3 185.15 74.03 193.6"/>
      <path class="cls-2" d="M87.23,185.63c-.76-.42-1.6-.63-2.53-.63s-1.77,.21-2.52,.63c-.75,.42-1.34,1.01-1.78,1.78-.44,.77-.65,1.67-.65,2.69s.21,1.93,.64,2.69c.43,.77,1.02,1.36,1.76,1.78,.74,.42,1.58,.63,2.51,.63s1.78-.21,2.54-.63,1.36-1.01,1.8-1.79c.44-.77,.65-1.67,.65-2.69s-.21-1.93-.64-2.69c-.43-.77-1.02-1.36-1.78-1.78Zm.6,6.68c-.34,.6-.8,1.05-1.35,1.34s-1.16,.44-1.81,.44-1.26-.15-1.81-.44c-.55-.3-.99-.74-1.32-1.34-.33-.6-.5-1.33-.5-2.2s.17-1.61,.5-2.21c.33-.6,.78-1.05,1.33-1.34s1.16-.44,1.81-.44,1.26,.15,1.81,.44,1,.74,1.34,1.34c.34,.6,.51,1.33,.51,2.21s-.17,1.61-.52,2.2Z"/>
      <path class="cls-2" d="M99.29,190.53c0,1.17-.28,2.06-.85,2.67-.57,.6-1.33,.91-2.29,.91s-1.67-.28-2.2-.85c-.54-.57-.81-1.39-.81-2.47v-5.64h-1.25v5.79c0,1.39,.38,2.45,1.13,3.19,.75,.73,1.72,1.1,2.9,1.1,.75,0,1.43-.16,2.03-.49,.6-.33,1.05-.8,1.34-1.42v1.74h1.27v-9.91h-1.27v5.39Z"/>
      <path class="cls-2" d="M104.74,186.91v-1.76h-1.27v9.91h1.27v-5.53c0-1.16,.28-1.99,.83-2.49s1.29-.74,2.21-.74h.34v-1.32c-.83,0-1.54,.17-2.11,.51-.57,.34-1,.82-1.28,1.43Z"/>
      <path class="cls-2" d="M122.62,185.63c-.72-.42-1.53-.63-2.42-.63-.94,0-1.76,.22-2.44,.66-.68,.44-1.18,1-1.5,1.66v-2.18h-1.25v14.59h1.25v-6.86c.31,.67,.82,1.22,1.51,1.66,.69,.44,1.5,.66,2.43,.66s1.7-.21,2.42-.63,1.28-1.02,1.69-1.8c.41-.77,.61-1.67,.61-2.69s-.2-1.91-.61-2.68c-.41-.77-.97-1.36-1.69-1.78Zm.53,6.59c-.32,.61-.76,1.08-1.32,1.4-.56,.32-1.19,.48-1.89,.48s-1.3-.16-1.86-.49-1.01-.79-1.33-1.4-.49-1.31-.49-2.1,.16-1.5,.49-2.1,.77-1.07,1.33-1.4,1.18-.49,1.86-.49,1.33,.16,1.89,.47,1,.77,1.32,1.37c.32,.6,.48,1.31,.48,2.13s-.16,1.52-.48,2.13Z"/>
      <rect class="cls-2" x="127.26" y="185.15" width="1.27" height="9.91"/>
      <path class="cls-2" d="M127.89,181.41c-.25,0-.47,.09-.65,.26s-.27,.4-.27,.66,.09,.49,.27,.67c.18,.18,.4,.27,.65,.27s.47-.09,.65-.27c.18-.18,.27-.41,.27-.67s-.09-.49-.27-.66-.4-.26-.65-.26Z"/>
      <polygon class="cls-2" points="137.18 186.2 137.18 185.15 130.72 185.15 130.72 186.2 135.73 186.2 130.63 194 130.63 195.05 137.27 195.05 137.27 194 132.08 194 137.18 186.2"/>
      <polygon class="cls-2" points="145.18 186.2 145.18 185.15 138.72 185.15 138.72 186.2 143.73 186.2 138.63 194 138.63 195.05 145.28 195.05 145.28 194 140.08 194 145.18 186.2"/>
      <path class="cls-2" d="M155.49,187.32c-.3-.68-.8-1.23-1.48-1.67-.68-.44-1.5-.65-2.44-.65s-1.72,.21-2.44,.63c-.72,.42-1.28,1.01-1.69,1.78-.41,.77-.61,1.66-.61,2.68s.2,1.91,.61,2.69c.41,.77,.97,1.37,1.69,1.8s1.53,.63,2.42,.63c.94,0,1.76-.22,2.44-.66,.68-.44,1.18-1,1.5-1.68v2.2h1.27v-9.91h-1.27v2.18Zm-.49,4.88c-.33,.6-.77,1.07-1.33,1.4s-1.18,.49-1.86,.49-1.33-.16-1.89-.48c-.56-.32-1-.79-1.32-1.4-.32-.61-.48-1.32-.48-2.13s.16-1.53,.48-2.13c.32-.6,.76-1.06,1.32-1.37,.56-.31,1.19-.47,1.89-.47s1.3,.16,1.86,.49,1.01,.79,1.33,1.4,.49,1.31,.49,2.1-.16,1.5-.49,2.1Z"/>
    </g>
  </g>
</svg>